<?xml version="1.0" encoding="UTF-8" standalone="no"?>
<svg width="500px" height="488px" viewBox="0 0 500 488" version="1.1" xmlns="http://www.w3.org/2000/svg" xmlns:xlink="http://www.w3.org/1999/xlink" xmlns:sketch="http://www.bohemiancoding.com/sketch/ns">
    <g id="ukraine" stroke="none" stroke-width="1" fill="none" fill-rule="evenodd" sketch:type="MSLayerGroup" transform="translate(0.000000, -25.000000)">
        <path d="M249.164966,275.016573 C249.164966,275.016573 242.617347,297.874047 232.158163,312.805585 C236.068027,315.201857 249.164966,323.589663 249.164966,323.589663 C249.164966,323.589663 262.262755,315.201857 266.171769,312.805585 C255.713435,297.874047 249.164966,275.016573 249.164966,275.016573 L249.164966,275.016573 L249.164966,275.016573 Z M241.511905,357.676042 L226.205782,357.676042 C226.205782,357.676042 227.87415,374.09545 241.511905,385.797304 L241.511905,357.676042 L241.511905,357.676042 Z M223.654762,344.04149 L241.511905,344.04149 C241.511905,344.04149 240.936224,328.471684 225.996599,326.146141 C224.728741,330.187081 223.654762,335.093816 223.654762,344.04149 L223.654762,344.04149 L223.654762,344.04149 Z M210.89966,323.255616 C207.794218,323.255616 187.317177,320.405143 183.143707,302.285676 L175.185374,302.285676 L175.185374,344.04149 L207.794218,344.04149 C207.794218,344.04149 207.794218,332.63704 210.89966,323.255616 L210.89966,323.255616 L210.89966,323.255616 Z M175.185374,185.539829 C175.185374,185.539829 189.132653,201.430899 193.17517,220.094895 C195.39881,237.280395 199.845238,270.727654 199.845238,270.727654 C199.845238,270.727654 186.505102,275.900262 183.472789,288.651125 L175.185374,288.651125 L175.185374,185.539829 L175.185374,185.539829 Z M257.668367,357.676042 L272.97449,357.676042 C272.97449,357.676042 271.306122,374.09545 257.668367,385.797304 L257.668367,357.676042 L257.668367,357.676042 Z M275.52551,344.04149 L257.668367,344.04149 C257.668367,344.04149 258.244898,328.472537 273.183673,326.146141 C274.452381,330.187081 275.52551,335.093816 275.52551,344.04149 L275.52551,344.04149 L275.52551,344.04149 Z M287.430272,323.255616 C290.535714,323.255616 311.013605,320.404291 315.187075,302.285676 L323.144558,302.285676 L323.144558,344.04149 L290.535714,344.04149 C290.535714,344.04149 290.535714,332.636188 287.430272,323.255616 L287.430272,323.255616 L287.430272,323.255616 Z M323.994898,185.539829 C323.994898,185.539829 310.048469,201.430899 306.005952,220.094895 C303.782313,237.280395 299.335034,270.726802 299.335034,270.726802 C299.335034,270.726802 312.67602,275.901115 315.708333,288.651125 L323.994898,288.651125 L323.994898,185.539829 L323.994898,185.539829 Z M249.590136,135.26242 C238.748299,146.435935 238.59949,160.430098 238.59949,163.008733 C238.59949,177.831194 240.678571,204.162922 240.678571,232.980399 C240.678571,278.094573 217.409864,308.108482 217.409864,308.108482 C217.409864,308.108482 217.013605,308.844748 212.260204,308.844748 C207.507653,308.844748 197.210034,305.2546 197.210034,294.666518 C197.210034,284.078437 209.784864,281.132522 212.161565,281.132522 C214.538265,281.132522 215.72619,281.500654 215.72619,281.500654 C215.72619,281.500654 213.34949,262.166008 208.002551,218.52607 C197.605442,171.846478 159.879252,155.550633 159.879252,155.550633 L159.879252,357.457037 L210.181122,357.457037 C210.181122,357.457037 213.845238,385.90638 240.678571,404.044595 C240.678571,404.044595 249.193878,410.856757 249.590136,413.066407 C249.986395,410.856757 258.502551,404.044595 258.502551,404.044595 C285.335884,385.907233 289,357.457037 289,357.457037 L339.30102,357.457037 L339.30102,155.550633 C339.30102,155.550633 301.57483,171.847331 291.178571,218.52607 C285.831633,262.166008 283.454932,281.500654 283.454932,281.500654 C283.454932,281.500654 284.642857,281.132522 287.019558,281.132522 C289.396259,281.132522 301.971088,284.078437 301.971088,294.666518 C301.971088,305.2546 291.673469,308.8456 286.920068,308.8456 C282.167517,308.8456 281.771259,308.108482 281.771259,308.108482 C281.771259,308.108482 258.502551,278.094573 258.502551,232.981251 C258.502551,204.162922 260.581633,177.831194 260.581633,163.008733 C260.581633,160.430098 260.432823,146.435935 249.590136,135.26242 L249.590136,135.26242 L249.590136,135.26242 Z" id="Clip-28" fill="#000000" sketch:type="MSShapeGroup"></path>
    </g>
</svg>